<?xml version="1.0" encoding="UTF-8"?>
<svg id="gauge" viewBox="0 0 400 400" xmlns="http://www.w3.org/2000/svg">
    <defs>
        <mask id="circleHole">
            <!-- Біле = видиме, чорне = прозоре -->
            <rect width="600" height="600" fill="white" />
            <circle cx="200" cy="200" r="126" fill="black" />
        </mask>
    </defs>
    <style>
        .text_scale {
            font-size: 1rem;
            font-family: monospace;
            fill: #ccc;
            dominant-baseline: middle;
            text-anchor: middle;
        }
        .main-shape_scale{
            fill: #333;
        }
        .circle_scale{
            fill: none;
            stroke: #999;
            stroke-width: 1;
        }
        .thin_scale{
            stroke: #666;
            stroke-width: 1;
        }
        .thick_scale {
            stroke: #aaa;
            stroke-width: 2;
        }
    </style>
    <circle cx="200" cy="200" r="185" stroke="#333" class="main-shape_scale" mask="url(#circleHole)"/>
    <g transform="translate(200,200) scale(0.99) translate(-200,-200)">
        <text class="text_scale" x="200" y="45" transform="rotate(0, 200, 45)">0</text>
        <text class="text_scale" x="240.1169519908907" y="50.2814969251944" transform="rotate(15, 240.1169519908907, 50.2814969251944)">15</text>
        <text class="text_scale" x="277.5" y="65.76606241341202" transform="rotate(30, 277.5, 65.76606241341202)">30</text>
        <text class="text_scale" x="309.60155108391484" y="90.39844891608514" transform="rotate(45, 309.60155108391484, 90.39844891608514)">45</text>
        <text class="text_scale" x="334.233937586588" y="122.50000000000001" transform="rotate(60, 334.233937586588, 122.50000000000001)">60</text>
        <text class="text_scale" x="349.7185030748056" y="159.8830480091093" transform="rotate(75, 349.7185030748056, 159.8830480091093)">75</text>
        <text class="text_scale" x="355" y="200" transform="rotate(90, 355, 200)">90</text>
        <text class="text_scale" x="349.7185030748056" y="240.1169519908907" transform="rotate(105, 349.7185030748056, 240.1169519908907)">105</text>
        <text class="text_scale" x="334.233937586588" y="277.5" transform="rotate(120, 334.233937586588, 277.5)">120</text>
        <text class="text_scale" x="309.60155108391484" y="309.60155108391484" transform="rotate(135, 309.60155108391484, 309.60155108391484)">135</text>
        <text class="text_scale" x="277.5" y="334.233937586588" transform="rotate(150, 277.5, 334.233937586588)">150</text>
        <text class="text_scale" x="240.1169519908907" y="349.7185030748056" transform="rotate(165, 240.1169519908907, 349.7185030748056)">165</text>
        <text class="text_scale" x="200" y="355" transform="rotate(180, 200, 355)">180</text>
        <text class="text_scale" x="159.88304800910927" y="349.7185030748056" transform="rotate(195, 159.88304800910927, 349.7185030748056)">195</text>
        <text class="text_scale" x="122.50000000000003" y="334.233937586588" transform="rotate(210, 122.50000000000003, 334.233937586588)">210</text>
        <text class="text_scale" x="90.39844891608514" y="309.60155108391484" transform="rotate(225, 90.39844891608514, 309.60155108391484)">225</text>
        <text class="text_scale" x="65.76606241341199" y="277.5" transform="rotate(240, 65.76606241341199, 277.5)">240</text>
        <text class="text_scale" x="50.28149692519443" y="240.11695199089075" transform="rotate(255, 50.28149692519443, 240.11695199089075)">255</text>
        <text class="text_scale" x="45" y="200.00000000000003" transform="rotate(270, 45, 200.00000000000003)">270</text>
        <text class="text_scale" x="50.2814969251944" y="159.88304800910936" transform="rotate(285, 50.2814969251944, 159.88304800910936)">285</text>
        <text class="text_scale" x="65.76606241341202" y="122.49999999999999" transform="rotate(300, 65.76606241341202, 122.49999999999999)">300</text>
        <text class="text_scale" x="90.39844891608512" y="90.39844891608514" transform="rotate(315, 90.39844891608512, 90.39844891608514)">315</text>
        <text class="text_scale" x="122.49999999999993" y="65.76606241341204" transform="rotate(330, 122.49999999999993, 65.76606241341204)">330</text>
        <text class="text_scale" x="159.8830480091093" y="50.2814969251944" transform="rotate(345, 159.8830480091093, 50.2814969251944)">345</text>
    </g>
    <g transform="translate(200,200) scale(1) translate(-200,-200)">
        <line x1="215.68803369457845" y1="20.6849543434858" x2="214.9907877525972" y2="28.654511928219762" class="thin_scale"></line>
        <line x1="231.25667198004749" y1="22.73460445780256" x2="229.86748655871202" y2="30.613066481900233" class="thin_scale"></line>
        <line x1="261.56362579862036" y1="30.855328258536503" x2="258.827464652015" y2="38.37286922482377" class="thin_scale"></line>
        <line x1="276.07128711332587" y1="36.86459833340302" x2="272.6903410194003" y2="44.11506062969622" class="thin_scale"></line>
        <line x1="303.2437585431883" y1="52.552632027981474" x2="298.65514705237996" y2="59.1058483822934" class="thin_scale"></line>
        <line x1="315.7017697435771" y1="62.11200023858396" x2="310.5594688660848" y2="68.24035578353579" class="thin_scale"></line>
        <line x1="337.88799976141604" y1="84.29823025642294" x2="331.7596442164642" y2="89.44053113391524" class="thin_scale"></line>
        <line x1="347.4473679720185" y1="96.75624145681171" x2="340.8941516177066" y2="101.34485294762008" class="thin_scale"></line>
        <line x1="363.135401666597" y1="123.9287128866741" x2="355.88493937030375" y2="127.30965898059969" class="thin_scale"></line>
        <line x1="369.1446717414635" y1="138.43637420137964" x2="361.6271307751763" y2="141.172535347985" class="thin_scale"></line>
        <line x1="377.26539554219744" y1="168.74332801995254" x2="369.3869335180998" y2="170.13251344128798" class="thin_scale"></line>
        <line x1="379.3150456565142" y1="184.31196630542152" x2="371.3454880717802" y2="185.0092122474028" class="thin_scale"></line>
        <line x1="379.3150456565142" y1="215.68803369457848" x2="371.3454880717802" y2="214.9907877525972" class="thin_scale"></line>
        <line x1="377.26539554219744" y1="231.25667198004746" x2="369.3869335180998" y2="229.86748655871202" class="thin_scale"></line>
        <line x1="369.1446717414635" y1="261.56362579862036" x2="361.6271307751763" y2="258.827464652015" class="thin_scale"></line>
        <line x1="363.135401666597" y1="276.07128711332587" x2="355.88493937030375" y2="272.6903410194003" class="thin_scale"></line>
        <line x1="347.4473679720185" y1="303.2437585431883" x2="340.8941516177066" y2="298.6551470523799" class="thin_scale"></line>
        <line x1="337.88799976141604" y1="315.7017697435771" x2="331.7596442164642" y2="310.5594688660848" class="thin_scale"></line>
        <line x1="315.7017697435771" y1="337.88799976141604" x2="310.5594688660848" y2="331.7596442164642" class="thin_scale"></line>
        <line x1="303.2437585431883" y1="347.4473679720185" x2="298.65514705237996" y2="340.8941516177066" class="thin_scale"></line>
        <line x1="276.07128711332587" y1="363.135401666597" x2="272.6903410194003" y2="355.88493937030375" class="thin_scale"></line>
        <line x1="261.56362579862036" y1="369.1446717414635" x2="258.827464652015" y2="361.6271307751762" class="thin_scale"></line>
        <line x1="231.25667198004749" y1="377.26539554219744" x2="229.86748655871202" y2="369.3869335180998" class="thin_scale"></line>
        <line x1="215.68803369457845" y1="379.3150456565142" x2="214.9907877525972" y2="371.3454880717802" class="thin_scale"></line>
        <line x1="184.31196630542152" y1="379.3150456565142" x2="185.0092122474028" y2="371.3454880717802" class="thin_scale"></line>
        <line x1="168.74332801995254" y1="377.26539554219744" x2="170.13251344128798" y2="369.3869335180998" class="thin_scale"></line>
        <line x1="138.43637420137964" y1="369.1446717414635" x2="141.172535347985" y2="361.6271307751763" class="thin_scale"></line>
        <line x1="123.92871288667412" y1="363.135401666597" x2="127.30965898059972" y2="355.8849393703038" class="thin_scale"></line>
        <line x1="96.75624145681175" y1="347.4473679720186" x2="101.34485294762011" y2="340.8941516177066" class="thin_scale"></line>
        <line x1="84.29823025642291" y1="337.88799976141604" x2="89.44053113391523" y2="331.7596442164642" class="thin_scale"></line>
        <line x1="62.11200023858399" y1="315.7017697435771" x2="68.24035578353579" y2="310.5594688660848" class="thin_scale"></line>
        <line x1="52.5526320279815" y1="303.24375854318833" x2="59.10584838229346" y2="298.65514705237996" class="thin_scale"></line>
        <line x1="36.86459833340302" y1="276.0712871133259" x2="44.11506062969622" y2="272.6903410194003" class="thin_scale"></line>
        <line x1="30.855328258536503" y1="261.5636257986204" x2="38.37286922482377" y2="258.82746465201507" class="thin_scale"></line>
        <line x1="22.73460445780256" y1="231.25667198004746" x2="30.613066481900233" y2="229.86748655871202" class="thin_scale"></line>
        <line x1="20.6849543434858" y1="215.68803369457856" x2="28.654511928219762" y2="214.99078775259727" class="thin_scale"></line>
        <line x1="20.6849543434858" y1="184.31196630542158" x2="28.654511928219762" y2="185.00921224740284" class="thin_scale"></line>
        <line x1="22.73460445780256" y1="168.74332801995251" x2="30.613066481900233" y2="170.13251344128795" class="thin_scale"></line>
        <line x1="30.855328258536474" y1="138.43637420137964" x2="38.372869224823745" y2="141.172535347985" class="thin_scale"></line>
        <line x1="36.864598333402995" y1="123.92871288667413" x2="44.11506062969619" y2="127.30965898059972" class="thin_scale"></line>
        <line x1="52.552632027981446" y1="96.75624145681175" x2="59.105848382293374" y2="101.34485294762011" class="thin_scale"></line>
        <line x1="62.11200023858396" y1="84.29823025642294" x2="68.24035578353579" y2="89.44053113391524" class="thin_scale"></line>
        <line x1="84.2982302564229" y1="62.11200023858399" x2="89.44053113391521" y2="68.24035578353579" class="thin_scale"></line>
        <line x1="96.75624145681165" y1="52.5526320279815" x2="101.34485294762003" y2="59.10584838229346" class="thin_scale"></line>
        <line x1="123.928712886674" y1="36.86459833340305" x2="127.30965898059961" y2="44.115060629696245" class="thin_scale"></line>
        <line x1="138.43637420137952" y1="30.85532825853653" x2="141.17253534798488" y2="38.3728692248238" class="thin_scale"></line>
        <line x1="168.74332801995254" y1="22.73460445780256" x2="170.13251344128798" y2="30.613066481900233" class="thin_scale"></line>
        <line x1="184.31196630542152" y1="20.6849543434858" x2="185.0092122474028" y2="28.654511928219762" class="thin_scale"></line>
    </g>
    <g transform="translate(200,200) scale(0.77) translate(-200,-200)">
        <line x1="215.68803369457845" y1="20.6849543434858" x2="214.9907877525972" y2="28.654511928219762" class="thin_scale"></line>
        <line x1="231.25667198004749" y1="22.73460445780256" x2="229.86748655871202" y2="30.613066481900233" class="thin_scale"></line>
        <line x1="261.56362579862036" y1="30.855328258536503" x2="258.827464652015" y2="38.37286922482377" class="thin_scale"></line>
        <line x1="276.07128711332587" y1="36.86459833340302" x2="272.6903410194003" y2="44.11506062969622" class="thin_scale"></line>
        <line x1="303.2437585431883" y1="52.552632027981474" x2="298.65514705237996" y2="59.1058483822934" class="thin_scale"></line>
        <line x1="315.7017697435771" y1="62.11200023858396" x2="310.5594688660848" y2="68.24035578353579" class="thin_scale"></line>
        <line x1="337.88799976141604" y1="84.29823025642294" x2="331.7596442164642" y2="89.44053113391524" class="thin_scale"></line>
        <line x1="347.4473679720185" y1="96.75624145681171" x2="340.8941516177066" y2="101.34485294762008" class="thin_scale"></line>
        <line x1="363.135401666597" y1="123.9287128866741" x2="355.88493937030375" y2="127.30965898059969" class="thin_scale"></line>
        <line x1="369.1446717414635" y1="138.43637420137964" x2="361.6271307751763" y2="141.172535347985" class="thin_scale"></line>
        <line x1="377.26539554219744" y1="168.74332801995254" x2="369.3869335180998" y2="170.13251344128798" class="thin_scale"></line>
        <line x1="379.3150456565142" y1="184.31196630542152" x2="371.3454880717802" y2="185.0092122474028" class="thin_scale"></line>
        <line x1="379.3150456565142" y1="215.68803369457848" x2="371.3454880717802" y2="214.9907877525972" class="thin_scale"></line>
        <line x1="377.26539554219744" y1="231.25667198004746" x2="369.3869335180998" y2="229.86748655871202" class="thin_scale"></line>
        <line x1="369.1446717414635" y1="261.56362579862036" x2="361.6271307751763" y2="258.827464652015" class="thin_scale"></line>
        <line x1="363.135401666597" y1="276.07128711332587" x2="355.88493937030375" y2="272.6903410194003" class="thin_scale"></line>
        <line x1="347.4473679720185" y1="303.2437585431883" x2="340.8941516177066" y2="298.6551470523799" class="thin_scale"></line>
        <line x1="337.88799976141604" y1="315.7017697435771" x2="331.7596442164642" y2="310.5594688660848" class="thin_scale"></line>
        <line x1="315.7017697435771" y1="337.88799976141604" x2="310.5594688660848" y2="331.7596442164642" class="thin_scale"></line>
        <line x1="303.2437585431883" y1="347.4473679720185" x2="298.65514705237996" y2="340.8941516177066" class="thin_scale"></line>
        <line x1="276.07128711332587" y1="363.135401666597" x2="272.6903410194003" y2="355.88493937030375" class="thin_scale"></line>
        <line x1="261.56362579862036" y1="369.1446717414635" x2="258.827464652015" y2="361.6271307751762" class="thin_scale"></line>
        <line x1="231.25667198004749" y1="377.26539554219744" x2="229.86748655871202" y2="369.3869335180998" class="thin_scale"></line>
        <line x1="215.68803369457845" y1="379.3150456565142" x2="214.9907877525972" y2="371.3454880717802" class="thin_scale"></line>
        <line x1="184.31196630542152" y1="379.3150456565142" x2="185.0092122474028" y2="371.3454880717802" class="thin_scale"></line>
        <line x1="168.74332801995254" y1="377.26539554219744" x2="170.13251344128798" y2="369.3869335180998" class="thin_scale"></line>
        <line x1="138.43637420137964" y1="369.1446717414635" x2="141.172535347985" y2="361.6271307751763" class="thin_scale"></line>
        <line x1="123.92871288667412" y1="363.135401666597" x2="127.30965898059972" y2="355.8849393703038" class="thin_scale"></line>
        <line x1="96.75624145681175" y1="347.4473679720186" x2="101.34485294762011" y2="340.8941516177066" class="thin_scale"></line>
        <line x1="84.29823025642291" y1="337.88799976141604" x2="89.44053113391523" y2="331.7596442164642" class="thin_scale"></line>
        <line x1="62.11200023858399" y1="315.7017697435771" x2="68.24035578353579" y2="310.5594688660848" class="thin_scale"></line>
        <line x1="52.5526320279815" y1="303.24375854318833" x2="59.10584838229346" y2="298.65514705237996" class="thin_scale"></line>
        <line x1="36.86459833340302" y1="276.0712871133259" x2="44.11506062969622" y2="272.6903410194003" class="thin_scale"></line>
        <line x1="30.855328258536503" y1="261.5636257986204" x2="38.37286922482377" y2="258.82746465201507" class="thin_scale"></line>
        <line x1="22.73460445780256" y1="231.25667198004746" x2="30.613066481900233" y2="229.86748655871202" class="thin_scale"></line>
        <line x1="20.6849543434858" y1="215.68803369457856" x2="28.654511928219762" y2="214.99078775259727" class="thin_scale"></line>
        <line x1="20.6849543434858" y1="184.31196630542158" x2="28.654511928219762" y2="185.00921224740284" class="thin_scale"></line>
        <line x1="22.73460445780256" y1="168.74332801995251" x2="30.613066481900233" y2="170.13251344128795" class="thin_scale"></line>
        <line x1="30.855328258536474" y1="138.43637420137964" x2="38.372869224823745" y2="141.172535347985" class="thin_scale"></line>
        <line x1="36.864598333402995" y1="123.92871288667413" x2="44.11506062969619" y2="127.30965898059972" class="thin_scale"></line>
        <line x1="52.552632027981446" y1="96.75624145681175" x2="59.105848382293374" y2="101.34485294762011" class="thin_scale"></line>
        <line x1="62.11200023858396" y1="84.29823025642294" x2="68.24035578353579" y2="89.44053113391524" class="thin_scale"></line>
        <line x1="84.2982302564229" y1="62.11200023858399" x2="89.44053113391521" y2="68.24035578353579" class="thin_scale"></line>
        <line x1="96.75624145681165" y1="52.5526320279815" x2="101.34485294762003" y2="59.10584838229346" class="thin_scale"></line>
        <line x1="123.928712886674" y1="36.86459833340305" x2="127.30965898059961" y2="44.115060629696245" class="thin_scale"></line>
        <line x1="138.43637420137952" y1="30.85532825853653" x2="141.17253534798488" y2="38.3728692248238" class="thin_scale"></line>
        <line x1="168.74332801995254" y1="22.73460445780256" x2="170.13251344128798" y2="30.613066481900233" class="thin_scale"></line>
        <line x1="184.31196630542152" y1="20.6849543434858" x2="185.0092122474028" y2="28.654511928219762" class="thin_scale"></line>
    </g>
    <g transform="translate(200,200) scale(0.8) translate(-200,-200)">
        <line x1="200" y1="20" x2="200" y2="35" class="thick_scale"></line>
        <line x1="246.58742811845372" y1="26.133351267967697" x2="242.70514244191594" y2="40.622238662303715" class="thick_scale"></line>
        <line x1="290" y1="44.11542731880104" x2="282.5" y2="57.10580837556762" class="thick_scale"></line>
        <line x1="327.27922061357856" y1="72.72077938642146" x2="316.6726188957804" y2="83.32738110421967" class="thick_scale"></line>
        <line x1="355.88457268119896" y1="110.00000000000001" x2="342.8941916244324" y2="117.50000000000001" class="thick_scale"></line>
        <line x1="373.86664873203233" y1="153.41257188154628" x2="359.37776133769626" y2="157.29485755808406" class="thick_scale"></line>
        <line x1="380" y1="200" x2="365" y2="200" class="thick_scale"></line>
        <line x1="373.86664873203233" y1="246.58742811845372" x2="359.37776133769626" y2="242.70514244191594" class="thick_scale"></line>
        <line x1="355.88457268119896" y1="290" x2="342.8941916244324" y2="282.5" class="thick_scale"></line>
        <line x1="327.27922061357856" y1="327.27922061357856" x2="316.6726188957804" y2="316.6726188957803" class="thick_scale"></line>
        <line x1="290" y1="355.88457268119896" x2="282.5" y2="342.8941916244324" class="thick_scale"></line>
        <line x1="246.58742811845372" y1="373.86664873203233" x2="242.70514244191594" y2="359.37776133769626" class="thick_scale"></line>
        <line x1="200" y1="380" x2="200" y2="365" class="thick_scale"></line>
        <line x1="153.41257188154626" y1="373.86664873203233" x2="157.29485755808406" y2="359.37776133769626" class="thick_scale"></line>
        <line x1="110.00000000000004" y1="355.88457268119896" x2="117.50000000000004" y2="342.8941916244324" class="thick_scale"></line>
        <line x1="72.72077938642146" y1="327.27922061357856" x2="83.32738110421967" y2="316.6726188957804" class="thick_scale"></line>
        <line x1="44.11542731880104" y1="290" x2="57.10580837556762" y2="282.5" class="thick_scale"></line>
        <line x1="26.133351267967726" y1="246.58742811845377" x2="40.622238662303744" y2="242.70514244191597" class="thick_scale"></line>
        <line x1="20" y1="200.00000000000003" x2="35" y2="200.00000000000003" class="thick_scale"></line>
        <line x1="26.133351267967697" y1="153.41257188154634" x2="40.622238662303715" y2="157.29485755808415" class="thick_scale"></line>
        <line x1="44.11542731880104" y1="109.99999999999999" x2="57.10580837556762" y2="117.49999999999999" class="thick_scale"></line>
        <line x1="72.72077938642141" y1="72.72077938642146" x2="83.32738110421963" y2="83.32738110421967" class="thick_scale"></line>
        <line x1="109.99999999999991" y1="44.115427318801096" x2="117.49999999999993" y2="57.105808375567676" class="thick_scale"></line>
        <line x1="153.41257188154628" y1="26.133351267967697" x2="157.2948575580841" y2="40.622238662303715" class="thick_scale"></line>
    </g>
    <g transform="translate(200,200) scale(1) translate(-200,-200)">
        <line x1="200" y1="20" x2="200" y2="35" class="thick_scale"></line>
        <line x1="246.58742811845372" y1="26.133351267967697" x2="242.70514244191594" y2="40.622238662303715" class="thick_scale"></line>
        <line x1="290" y1="44.11542731880104" x2="282.5" y2="57.10580837556762" class="thick_scale"></line>
        <line x1="327.27922061357856" y1="72.72077938642146" x2="316.6726188957804" y2="83.32738110421967" class="thick_scale"></line>
        <line x1="355.88457268119896" y1="110.00000000000001" x2="342.8941916244324" y2="117.50000000000001" class="thick_scale"></line>
        <line x1="373.86664873203233" y1="153.41257188154628" x2="359.37776133769626" y2="157.29485755808406" class="thick_scale"></line>
        <line x1="380" y1="200" x2="365" y2="200" class="thick_scale"></line>
        <line x1="373.86664873203233" y1="246.58742811845372" x2="359.37776133769626" y2="242.70514244191594" class="thick_scale"></line>
        <line x1="355.88457268119896" y1="290" x2="342.8941916244324" y2="282.5" class="thick_scale"></line>
        <line x1="327.27922061357856" y1="327.27922061357856" x2="316.6726188957804" y2="316.6726188957803" class="thick_scale"></line>
        <line x1="290" y1="355.88457268119896" x2="282.5" y2="342.8941916244324" class="thick_scale"></line>
        <line x1="246.58742811845372" y1="373.86664873203233" x2="242.70514244191594" y2="359.37776133769626" class="thick_scale"></line>
        <line x1="200" y1="380" x2="200" y2="365" class="thick_scale"></line>
        <line x1="153.41257188154626" y1="373.86664873203233" x2="157.29485755808406" y2="359.37776133769626" class="thick_scale"></line>
        <line x1="110.00000000000004" y1="355.88457268119896" x2="117.50000000000004" y2="342.8941916244324" class="thick_scale"></line>
        <line x1="72.72077938642146" y1="327.27922061357856" x2="83.32738110421967" y2="316.6726188957804" class="thick_scale"></line>
        <line x1="44.11542731880104" y1="290" x2="57.10580837556762" y2="282.5" class="thick_scale"></line>
        <line x1="26.133351267967726" y1="246.58742811845377" x2="40.622238662303744" y2="242.70514244191597" class="thick_scale"></line>
        <line x1="20" y1="200.00000000000003" x2="35" y2="200.00000000000003" class="thick_scale"></line>
        <line x1="26.133351267967697" y1="153.41257188154634" x2="40.622238662303715" y2="157.29485755808415" class="thick_scale"></line>
        <line x1="44.11542731880104" y1="109.99999999999999" x2="57.10580837556762" y2="117.49999999999999" class="thick_scale"></line>
        <line x1="72.72077938642141" y1="72.72077938642146" x2="83.32738110421963" y2="83.32738110421967" class="thick_scale"></line>
        <line x1="109.99999999999991" y1="44.115427318801096" x2="117.49999999999993" y2="57.105808375567676" class="thick_scale"></line>
        <line x1="153.41257188154628" y1="26.133351267967697" x2="157.2948575580841" y2="40.622238662303715" class="thick_scale"></line>
    </g>
    <circle cx="200" cy="200" r="180" class="circle_scale"/>
    <circle cx="200" cy="200" r="132" class="circle_scale"/>
</svg>